<?xml version="1.0" encoding="iso-8859-1"?>
<!DOCTYPE svg PUBLIC "-//W3C//DTD SVG 1.0//EN" "http://www.w3.org/TR/2001/REC-SVG-20010904/DTD/svg10.dtd">
<!-- Creator: CorelDRAW -->
<svg xmlns="http://www.w3.org/2000/svg" xmlns:odm="http://product.corel.com/CGS/11/cddns/" xml:space="preserve" width="4961px" height="3508px" style="shape-rendering:geometricPrecision; text-rendering:geometricPrecision; image-rendering:optimizeQuality; fill-rule:evenodd"
     viewBox="0 0 4962 3508">
 <defs>
  <style type="text/css">
   <![CDATA[
    .str1 {stroke:#FFFFFF}
    .str0 {stroke:#0C003B}
    .fil1 {fill:#FFFFFF}
    .fil0 {fill:#0C003B}
   ]]>
  </style>
 </defs>
 <g id="Layer 1">
  <rect class="fil0 str0" x="453" y="2400" width="378" height="378"/>
  <path class="fil1 str1" d="M643 2457c70,0 127,58 127,128 0,71 -57,128 -127,128 -71,0 -128,-57 -128,-128 0,-70 57,-128 128,-128zm22 -41c14,2 27,5 39,10 -5,11 -1,25 10,31 11,7 26,3 33,-7 10,8 20,18 29,28 -11,8 -14,22 -7,32 6,12 20,16 31,10 5,13 9,26 11,39 -12,1 -22,12 -22,25 0,12 10,23 23,24 -2,13 -6,27 -10,39 -12,-5 -25,-1 -32,10 -6,11 -3,25 8,32 -9,11 -18,21 -29,29 -7,-10 -21,-13 -32,-7 -11,7 -15,21 -9,32 -13,5 -26,9 -40,11 -1,-12 -11,-22 -24,-22 -13,0 -23,10 -24,22 -14,-1 -27,-5 -39,-10 5,-11 1,-25 -10,-31 -11,-6 -25,-3 -33,7 -10,-8 -20,-17 -29,-28 11,-7 14,-21 7,-32 -6,-11 -20,-15 -31,-10 -5,-12 -9,-25 -11,-39 12,-1 22,-11 22,-24 0,-13 -10,-23 -23,-24 2,-14 6,-27 10,-40 12,6 25,1 32,-10 6,-11 3,-25 -8,-32 9,-11 18,-20 29,-29 7,10 21,13 32,7 11,-6 15,-20 9,-32 13,-5 26,-8 40,-10 1,12 11,22 24,22 13,0 23,-10 24,-23z"/>
  <path class="fil1 str1" d="M558 2568c-8,32 -14,61 -19,88 -1,2 -1,3 -1,4 -1,3 -1,4 -2,5 -1,1 -2,2 -3,2 -3,0 -5,-1 -6,-1 -1,-1 -1,-2 -1,-4 0,0 0,-2 0,-3 1,-2 1,-2 1,-3 17,-63 33,-127 50,-190 12,21 24,40 34,58 11,18 22,35 32,51 11,-18 21,-35 32,-54 11,-18 21,-36 32,-55 9,34 17,68 26,101 8,33 16,65 24,98l-63 45c-17,-76 16,-168 7,-210 -18,28 -75,121 -91,150l-52 -82z"/>
  <g>
  </g>
  <g>
  </g>
  <g>
  </g>
 </g>
</svg>
